<svg xmlns="http://www.w3.org/2000/svg" viewBox="0 0 1026.33 663.76"><defs><style>.cls-1{isolation:isolate;}.cls-2{fill:#ebbb3e;}.cls-3{fill:#fff;}</style></defs><title>aura logo white1</title><g id="Layer_2" data-name="Layer 2"><g id="Layer_1-2" data-name="Layer 1"><g id="Layer_1-2-2" data-name="Layer 1-2"><g class="cls-1"><path class="cls-2" d="M422.91,0c-6,0-11.9.14-17.61.45C236,3.54,118.16,132.52,94.9,165,32.56,239.51,17,349.57,16.83,351h0c12.64-12.86,36.52-19.68,57.51-23.1S196.72,327,196.72,327c66.28-156.7,225.76-183.82,340-126.89,96,48.29,120.07,150.06,120.07,150.06,4.85-3.24,30.52-15.89,53.69-19.55s116.49-4.68,117.14-4.69h0C768.31,81.64,559.35,0,423,0Z"/></g><path class="cls-3" d="M160.05,408.07s.53,104.57.62,108.28,6.65,22.34,20.22,22.65,21.87-14.66,22.31-22.08.7-153.95.7-153.95-117.39.08-120.76.17C49.52,362.88,1,401,1.12,453.08S50.9,535.17,79.9,538c19,1.42,42.2.89,44.49.84s21.3-2.55,22-23.44c-.59-5.74-6.44-21-20.23-21.38s-47,2.44-54.46-1.76-25.09-12.56-25.7-41c-.85-17.66,12.15-42.06,33.67-44.63,9.41,0,80.42,1.45,80.42,1.45"/><path class="cls-3" d="M246.57,391.62c.11-6.62,5.23-28.11,20.51-28.46s22,15.54,22.45,24.72.15,70.51.18,72.47c.11,4.49,11.75,36.16,45.34,35.12,6.72-.15,37.7-5.05,42.58-37.66.37-8.13,1.3-68.14,1.23-71.21s2.29-21.7,20.05-22.94c6.11-.13,20.14,5.92,22.16,21.45-.45,4.72-.23,63.88-.69,68.91s-3.41,45.63-30.22,64.29c-7.92,6.29-61.49,45.83-119-4.55-9.06-7.85-24-30.56-25.14-68-.16-7,.48-47.46.58-54.1"/><path class="cls-3" d="M502.51,517.31c.08,3.41-6,22.49-21,22.82s-22-16.43-22.2-23.1,1.55-67.55,1.18-71.15c-.6-14.7,23.6-75.25,74.33-80.29,27.48-1.44,50.85-1,53.14-1,4.13-.33,24.48,6.34,25.49,20.33s-13.72,23.28-18.52,23.61-56.06-1-61.31.69-30.25,12.38-32.11,52.15c-.5,8.75.92,52.55,1,56"/><path class="cls-3" d="M841.75,363.71c8.2-4.58,72.34-60.7,81.37-72.12S999.65,200.05,1016,166c0,0,21.33,11.07,2.7,76.51-6.25,16.67-7,21.93-14.25,28.44-17,21.26-134.86,90.29-160.72,152.73,0,0,17.39-35,63-69,14.67-8.51,95.34-73.37,97.4-76.43s5.35,35.93-15.13,55.48c-5,7.1-28.72,16.72-28.72,16.72s-97,41.6-117.48,86c0,0,9-16.88,40.31-40.6,9.83-7.21,42.46-26.12,65.23-37.24,4.53-2.32,3.65,5,3.43,7.52s-.1,32.23-28.45,45.55c-15,6.95-50.84,6.93-80.89,29.92a109.68,109.68,0,0,1,35.45-15.68c12.62-3,31.64-7.21,32.68-7s.63,22.72-16.36,37.71c-11.79,10.6-46.87,16.31-53.76,17.34-.09,22.61-.22,40.33-.37,42.78-.44,7.42-8.74,22.4-22.31,22.09s-20.14-19-20.22-22.66-.62-108.28-.62-108.28-71-1.42-80.41-1.44C695,409,682,433.46,682.83,451.08c.64,28.46,18.29,36.79,25.72,41s40.68,1.39,54.46,1.76,19.64,15.64,20.23,21.37c-.68,20.9-19.68,23.4-22,23.44s-25.46.59-44.51-.83c-29-2.8-78.6-32.79-78.76-84.88s48.4-90.21,82-90c3.35-.07,120.75-.16,120.75-.16v2.13a3,3,0,0,1,1-1.22"/><path class="cls-3" d="M790.64,584.46v32.35h18c4.68,0,7.77-.71,9.34-2.11,2.09-1.85,3.25-5.08,3.5-9.74h2.22v28.5h-2.22c-.56-4-1.14-6.56-1.68-7.68a7.55,7.55,0,0,0-3.57-3.31c-1.64-.81-4.18-1.22-7.59-1.22h-18v27c0,3.61.17,5.82.48,6.61a3.9,3.9,0,0,0,1.68,1.86,10.17,10.17,0,0,0,4.6.69h13.84a38.33,38.33,0,0,0,10.07-1,14.82,14.82,0,0,0,6-3.8A46.55,46.55,0,0,0,835,641.36h2.46l-7,20.5H767.31v-2.22h2.91a11.46,11.46,0,0,0,5.49-1.4,5,5,0,0,0,2.63-2.9c.47-1.29.7-3.94.7-7.93v-53.2c0-5.18-.51-8.37-1.56-9.57-1.46-1.59-3.87-2.4-7.26-2.4h-2.91V580h63.08l.86,18h-2.34c-.83-4.35-1.77-7.32-2.8-8.94a9.7,9.7,0,0,0-4.54-3.73c-1.61-.6-4.44-.91-8.49-.91Zm-70.86-2.22V580h35.05v2.21h-3c-3.36,0-5.78,1-7.31,3-1,1.29-1.46,4.37-1.46,9.28v40a47.14,47.14,0,0,1-2,15,22.93,22.93,0,0,1-6.93,10,17.5,17.5,0,0,1-11.89,4.26c-3.75,0-6.7-.91-8.86-2.8a8.26,8.26,0,0,1-3.26-6.41,6,6,0,0,1,1.51-4.48,6.45,6.45,0,0,1,4.61-1.86,5.3,5.3,0,0,1,3.42,1.25c1,.86,2.32,3.09,3.85,6.73.94,2.17,2.1,3.26,3.55,3.26a3.87,3.87,0,0,0,3-2c.93-1.32,1.41-3.68,1.41-7v-56c0-4.14-.26-6.88-.79-8.19a5.27,5.27,0,0,0-2.52-2.6,11.08,11.08,0,0,0-5.48-1.44ZM607.5,580h22l50.14,61.44V594.21q0-7.56-1.7-9.44c-1.51-1.68-3.89-2.53-7.15-2.53H667.9V580h28.77v2.21h-2.93c-3.51,0-6,1-7.47,3.14-.89,1.31-1.34,4.24-1.34,8.83v69h-2.18L628.9,597.26v50.41c0,5.05.55,8.18,1.65,9.44,1.53,1.68,3.93,2.53,7.15,2.53h2.92v2.22H611.87v-2.22h2.87c3.54,0,6-1,7.51-3.15.89-1.28,1.34-4.24,1.34-8.82V590.76a36.75,36.75,0,0,0-5.39-5.48,19.89,19.89,0,0,0-5.39-2.5,20.18,20.18,0,0,0-5.31-.54Zm-42,50.12-13.79-33-14.15,33Zm1.85,4.43H535.6l-5.47,12.82c-1.36,3.17-2.06,5.55-2.06,7.13a4.15,4.15,0,0,0,1.79,3.28c1.18.91,3.74,1.56,7.68,1.83v2.22H511.73v-2.22c3.42-.59,5.61-1.37,6.63-2.34q3.07-2.92,6.8-11.78l28.78-67.35h2l28.46,68.08c2.28,5.48,4.37,9,6.24,10.67s4.45,2.51,7.82,2.72v2.22H566.23v-2.22c3.25-.17,5.45-.7,6.61-1.63a4.19,4.19,0,0,0,1.7-3.4c0-1.77-.8-4.56-2.4-8.39ZM444.59,619.76h3.35c7.71,0,13.54-1.69,17.45-5a16.33,16.33,0,0,0,5.89-12.92,17,17,0,0,0-4.74-12.46c-3.17-3.2-7.37-4.78-12.57-4.78a52.54,52.54,0,0,0-9.35,1.08Zm58.05,42.1H480.73l-27.8-38.27c-2,.08-3.61.13-4.87.13-.53,0-1.07,0-1.64-.05s-1.21,0-1.83-.08v23.82c0,5.15.55,8.34,1.69,9.57,1.5,1.78,3.79,2.66,6.84,2.66h3.19v2.22H421.25v-2.22h3.07c3.46,0,5.92-1.14,7.41-3.38.83-1.23,1.24-4.19,1.24-8.85V594.47c0-5.16-.54-8.34-1.68-9.56q-2.35-2.67-7-2.67h-3.07V580H451c8.71,0,15.1.63,19.21,1.88a21.92,21.92,0,0,1,10.5,7A18.19,18.19,0,0,1,485,601a19.08,19.08,0,0,1-4.93,13.12c-3.28,3.69-8.34,6.31-15.23,7.85l16.93,23.44c3.87,5.38,7.17,9,10,10.77a25.34,25.34,0,0,0,10.85,3.38ZM379.75,582.24V580h28.77v2.21h-3.07a8.31,8.31,0,0,0-7.41,4c-.84,1.25-1.25,4.13-1.25,8.69v33.15q0,12.33-2.43,19.1c-1.62,4.53-4.84,8.41-9.59,11.63s-11.21,4.86-19.4,4.86c-8.91,0-15.67-1.53-20.29-4.65a25,25,0,0,1-9.81-12.49c-1.29-3.56-1.92-10.29-1.92-20.14v-32c0-5-.7-8.32-2.08-9.86s-3.63-2.37-6.72-2.37h-3.06V580H356.8v2.21h-3.13c-3.38,0-5.79,1.07-7.22,3.19-1,1.44-1.51,4.46-1.51,9v35.65a79.7,79.7,0,0,0,.87,10.91,23.77,23.77,0,0,0,3.16,9.61,17.72,17.72,0,0,0,6.61,5.66,22.86,22.86,0,0,0,10.57,2.23,29.38,29.38,0,0,0,14.37-3.5,18.77,18.77,0,0,0,8.64-8.93q2.32-5.49,2.32-18.51v-33c0-5.12-.56-8.29-1.68-9.56-1.57-1.78-3.89-2.67-7-2.67ZM298,578.17,300.11,604h-2.22q-3.18-9.59-8.23-14.46-7.29-7-18.7-7-15.54,0-23.68,12.35-6.79,10.41-6.77,24.85A49.5,49.5,0,0,0,245,641q4.5,9.63,11.83,14.14a28.58,28.58,0,0,0,15,4.48,32.71,32.71,0,0,0,8.75-1.16,33.7,33.7,0,0,0,8.13-3.39v-23.7c0-4.12-.31-6.8-.93-8.07a6.28,6.28,0,0,0-2.9-2.88c-1.31-.68-3.62-1-6.91-1v-2.2h31.6v2.2h-1.51c-3.12,0-5.26,1-6.43,3.16-.81,1.48-1.2,4.43-1.2,8.82v25.08a59.72,59.72,0,0,1-13.6,5.52,58.78,58.78,0,0,1-15,1.75q-23.67,0-35.93-15.2a40.52,40.52,0,0,1-9.22-26.3,46.18,46.18,0,0,1,22-38.8c6-3.49,13-5.24,21.21-5.24a43.07,43.07,0,0,1,8.09.71,77.65,77.65,0,0,1,10.33,3.21,16.88,16.88,0,0,0,4.52,1.26,2.42,2.42,0,0,0,2-1c.54-.69.86-2.07,1-4.13Zm-87.89,81.47v2.22h-35v-2.22H178c3.38,0,5.83-1,7.37-2.95,1-1.29,1.45-4.37,1.45-9.28V594.47c0-4.14-.28-6.88-.78-8.19a5.46,5.46,0,0,0-2.49-2.6,11.48,11.48,0,0,0-5.55-1.44h-2.91V580h35.06v2.21h-2.94c-3.33,0-5.77,1-7.29,3-1,1.29-1.5,4.37-1.5,9.28v52.94c0,4.15.27,6.88.78,8.19a5.27,5.27,0,0,0,2.54,2.6,10.94,10.94,0,0,0,5.47,1.44Zm-59.4-81.47v28.27h-2.22c-.72-5.44-2-9.74-3.89-13a20.57,20.57,0,0,0-8-7.65A22.12,22.12,0,0,0,125.85,583a14.57,14.57,0,0,0-10.38,3.82,11.69,11.69,0,0,0-4.11,8.73,10.38,10.38,0,0,0,2.59,6.82q3.75,4.53,17.8,12.07,11.49,6.16,15.69,9.45a23.14,23.14,0,0,1,6.47,7.74,20.73,20.73,0,0,1,2.25,9.36,21.17,21.17,0,0,1-7.2,16q-7.23,6.75-18.56,6.73a38.58,38.58,0,0,1-6.7-.54,78,78,0,0,1-7.76-2.24c-3.91-1.26-6.4-1.9-7.45-1.9a3.24,3.24,0,0,0-2.38.89,7.57,7.57,0,0,0-1.31,3.79h-2.21v-28h2.21q1.58,8.79,4.23,13.15a20.18,20.18,0,0,0,8.12,7.26,25.21,25.21,0,0,0,12,2.91c5,0,9-1.36,11.92-4a12.36,12.36,0,0,0,4.39-9.44,12.91,12.91,0,0,0-1.66-6.1,18.25,18.25,0,0,0-5.14-5.78c-1.55-1.21-5.86-3.76-12.87-7.67a119.54,119.54,0,0,1-15-9.33A25.64,25.64,0,0,1,104,609a19,19,0,0,1-2.31-9.3,20.09,20.09,0,0,1,6.77-15.14c4.51-4.25,10.27-6.37,17.23-6.37a34.87,34.87,0,0,1,13.84,3.18,13.85,13.85,0,0,0,4.77,1.51,3.61,3.61,0,0,0,2.58-.93,7.63,7.63,0,0,0,1.6-3.76ZM39.61,582.5a21.49,21.49,0,0,0-17.55,8.13q-8.23,10.17-8.24,29.71,0,20,8.53,30.84a21.12,21.12,0,0,0,17.33,8.22,23.76,23.76,0,0,0,19-9q7.47-9,7.47-28.37,0-21-8.25-31.33c-4.4-5.46-10.48-8.2-18.29-8.2m1.16-4.33q15.88,0,27.55,12.1T80,620.46q0,18.66-11.73,30.94A37.79,37.79,0,0,1,39.8,663.71a37.61,37.61,0,0,1-28.33-12Q0,639.7,0,620.63q0-19.49,13.25-31.78a39,39,0,0,1,27.52-10.68"/></g></g></g></svg>